<?xml version="1.0" encoding="UTF-8" standalone="yes"?>
<svg width="512" height="512" viewBox="0 0 512 512" version="1.2" baseProfile="tiny-ps" xmlns="http://www.w3.org/2000/svg">
  <title>bimi-svg-tiny-12-ps</title>
  <defs id="defs2"/>
  <rect x="0" y="0" width="512" height="512" fill="#1B2631" id="rect1"/>
  <circle cx="256" cy="256" r="215" fill="none" stroke="#D4AC0D" stroke-width="4" id="circle1"/>
  <circle cx="256" cy="256" r="205" fill="none" stroke="#D4AC0D" stroke-width="1" id="circle2"/>
  <path d="m 157.61133,259.1293 v 50.14649 q 0,16.25 3.55469,20.18554 4.82421,5.58594 14.5996,5.58594 h 6.60157 v 4.69727 h -73.75977 v -4.69727 h 6.47461 q 10.91797,0 15.61524,-7.10937 2.53906,-3.93555 2.53906,-18.66211 V 198.06485 q 0,-16.25 -3.42774,-20.18555 -4.95117,-5.58593 -14.72656,-5.58593 h -6.47461 v -4.69727 h 63.0957 q 23.10547,0 36.43555,4.82422 13.33008,4.69726 22.4707,15.99609 9.14063,11.29883 9.14063,26.78711 0,21.07422 -13.96484,34.27735 -13.83789,13.20312 -39.22852,13.20312 -6.2207,0 -13.45703,-0.88867 -7.23633,-0.88867 -15.48828,-2.66602 z m 0,-7.23633 q 6.72851,1.26954 11.93359,1.9043 5.20508,0.63477 8.88672,0.63477 13.20313,0 22.72461,-10.15625 9.64844,-10.28321 9.64844,-26.53321 0,-11.17187 -4.57032,-20.69336 -4.57031,-9.64843 -12.94921,-14.3457 -8.37891,-4.82422 -19.04297,-4.82422 -6.47461,0 -16.63086,2.41211 z m 240.32226,40.24415 4.18946,0.88867 -14.72657,46.71875 H 254.0957 v -4.69727 h 6.47461 q 10.91797,0 15.61524,-7.10937 2.66601,-4.0625 2.66601,-18.78907 V 198.06485 q 0,-16.12305 -3.55469,-20.18555 -4.95117,-5.58593 -14.72656,-5.58593 h -6.47461 v -4.69727 h 77.94922 v 4.69727 q -13.71094,-0.12696 -19.29687,2.53906 -5.45899,2.66601 -7.49024,6.72851 -2.03125,4.0625 -2.03125,19.42383 v 108.16406 q 0,10.53711 2.03125,14.47266 1.52344,2.66602 4.69727,3.93555 3.17383,1.26953 19.80469,1.26953 h 12.56835 q 19.80469,0 27.80274,-2.91992 7.99805,-2.91993 14.59961,-10.28321 6.60156,-7.49023 13.20312,-23.48632 z"/>
</svg>
